<svg width="203" height="58" viewBox="0 0 203 58" fill="none" xmlns="http://www.w3.org/2000/svg">
<path d="M106.859 3.97583H99.3965V32.4371H106.859V3.97583Z" fill="#6358EE"/>
<path d="M92.4925 32.5254C84.9434 32.5254 79.6504 36.9615 79.6504 43.3301C79.6504 49.567 85.0302 54.047 92.4925 54.047C100.128 54.047 105.421 49.6109 105.421 43.3301C105.421 36.9615 100.085 32.5254 92.4925 32.5254ZM92.4925 47.9858C89.1518 47.9858 86.9825 46.1411 86.9825 43.3301C86.9825 40.5191 89.1518 38.6744 92.4925 38.6744C95.9199 38.6744 98.1759 40.5191 98.1759 43.3301C98.1759 46.1411 95.9199 47.9858 92.4925 47.9858Z" fill="#6358EE"/>
<path d="M92.1477 11.926V5.90869H69.2402V12.1456H85.5097C85.5097 13.1997 85.3795 14.166 85.1192 15.1762H69.2402V21.0178H81.4749C78.7416 23.3017 74.62 24.8829 68.2423 26.1127L68.0254 26.1566L69.1968 32.7009L69.4137 32.657C84.7288 29.8021 92.1477 23.0382 92.1477 11.926Z" fill="#6358EE"/>
<path d="M137.795 31.8229H149.683V7.62207H118.402V31.8229H130.333V39.2896H112.371V45.4826H155.973V39.2896H137.838V31.8229H137.795ZM142.35 13.6833V25.7617H125.734V13.6833H142.35Z" fill="#6358EE"/>
<path d="M172.368 23.0375C172.715 23.3889 173.063 23.6524 173.453 23.916L182.651 30.7678L186.729 25.0579L177.531 18.2062C175.926 17.0203 175.926 16.8446 175.926 15.2195V12.3206H184.777V6.12769H159.44V12.3646H168.767V15.2634C168.767 16.8446 168.767 17.152 167.206 18.2501L158.008 25.1019L162.086 30.8117L171.284 23.9599C171.631 23.6524 172.021 23.3889 172.368 23.0375Z" fill="#6358EE"/>
<path d="M182.215 32.5254C174.666 32.5254 169.373 36.9615 169.373 43.3301C169.373 49.567 174.753 54.047 182.215 54.047C189.851 54.047 195.144 49.6109 195.144 43.3301C195.144 36.9615 189.851 32.5254 182.215 32.5254ZM182.215 47.9858C178.874 47.9858 176.705 46.1411 176.705 43.3301C176.705 40.5191 178.874 38.6744 182.215 38.6744C185.643 38.6744 187.812 40.5191 187.812 43.3301C187.812 46.1411 185.643 47.9858 182.215 47.9858Z" fill="#6358EE"/>
<path d="M195.667 14.9563V3.97583H188.248V31.9979H195.667V21.1931H202.001V14.9563H195.667Z" fill="#6358EE"/>
<path d="M56.8773 52.0262L56.9641 8.63159C56.9641 6.39159 55.0551 4.54688 52.7557 4.54688H11.6263C9.28354 4.54688 7.41797 6.34767 7.41797 8.63159V52.0262C7.41797 54.2662 9.32692 56.1109 11.6263 56.1109H52.6689C55.0117 56.067 56.8773 54.2662 56.8773 52.0262Z" fill="#58DADF"/>
<path d="M53.4494 4.54736H52.495C54.9679 4.54736 56.9637 6.34815 56.9637 8.63208L56.8769 52.0267C56.8769 54.2667 54.8812 56.1114 52.4082 56.1114H53.3627C55.8356 56.1114 57.8314 54.3106 57.8314 52.0267L57.9181 8.63208C57.9181 6.34815 55.9224 4.54736 53.4494 4.54736Z" fill="url(#paint0_linear_437_4482)"/>
<path d="M44.1229 58H4.46869C1.99573 58 0 56.1993 0 53.9153L6.16072 8.58814C6.16072 6.34813 8.15645 4.50342 10.6294 4.50342H50.327C52.8 4.50342 54.7957 6.30421 54.7957 8.58814L48.5916 53.9153C48.5916 56.1553 46.5959 58 44.1229 58Z" fill="url(#paint1_linear_437_4482)"/>
<path d="M18.8341 0.374792C17.6627 -0.19619 16.231 -0.108347 14.9294 0.5944C13.758 1.25323 12.7168 2.35127 12.066 3.75676C11.9359 4.02029 11.8491 4.28382 11.7189 4.54735C11.3285 5.68932 11.1549 6.8752 11.3718 7.97325C11.6322 9.46658 12.4131 10.6525 13.5845 11.2235C13.758 11.3113 13.975 11.3552 14.1485 11.3552C14.6257 11.3552 15.103 11.0917 15.3633 10.6085C15.667 9.94972 15.4067 9.11521 14.7559 8.80776C14.2353 8.54423 14.0184 7.8854 13.975 7.53403C13.8448 6.74344 14.0184 5.77716 14.4088 4.94265C14.4956 4.81088 14.539 4.67912 14.6257 4.54735C15.0162 3.8446 15.5802 3.31755 16.1442 2.96617C16.4479 2.79049 17.0987 2.52695 17.6193 2.79048C18.0966 3.05401 18.4003 3.71284 18.4437 4.50343H21.0902C21.0902 2.65872 20.2658 1.07754 18.8341 0.374792Z" fill="url(#paint2_linear_437_4482)"/>
<path d="M29.1167 0.374792C27.9453 -0.19619 26.5135 -0.108347 25.212 0.5944C24.0406 1.25323 22.9993 2.35127 22.3485 3.75676C22.2184 4.02029 22.1316 4.28382 22.0015 4.54735C21.0036 7.35834 21.7411 10.1693 23.867 11.2674C24.0406 11.3552 24.2575 11.3991 24.431 11.3991C24.9083 11.3991 25.3855 11.1356 25.6458 10.6525C25.9495 9.99364 25.6892 9.15913 25.0384 8.85168C24.2141 8.41246 23.867 6.74344 24.7347 4.94265C24.8215 4.81088 24.8649 4.67912 24.9517 4.54735C25.3421 3.84461 25.9061 3.31755 26.4701 2.96617C26.7738 2.79049 27.4246 2.52696 27.9453 2.79049C28.4659 3.05402 28.7262 3.71284 28.7696 4.50343H31.4161C31.4161 2.65872 30.5484 1.07754 29.1167 0.374792Z" fill="url(#paint3_linear_437_4482)"/>
<path d="M39.3986 0.374792C38.2272 -0.19619 36.7955 -0.108347 35.4939 0.5944C34.3225 1.25323 33.2812 2.35127 32.6305 3.75676C32.5003 4.02029 32.4135 4.28382 32.2834 4.54735C31.8929 5.68932 31.7194 6.8752 31.9363 7.97325C32.1966 9.46658 32.9775 10.6525 34.1489 11.2235C34.3225 11.3113 34.5394 11.3552 34.713 11.3552C35.1902 11.3552 35.6674 11.0917 35.9278 10.6085C36.2314 9.94972 35.9711 9.11521 35.3204 8.80776C34.7997 8.54423 34.5828 7.8854 34.5394 7.53403C34.4093 6.74344 34.5828 5.77716 34.9733 4.94265C35.06 4.81088 35.1034 4.67912 35.1902 4.54735C35.5807 3.8446 36.1447 3.31755 36.7087 2.96617C37.0124 2.79049 37.6632 2.52695 38.1838 2.79048C38.7044 3.05401 38.9647 3.71284 39.0081 4.50343H41.6546C41.698 2.65872 40.8303 1.07754 39.3986 0.374792Z" fill="url(#paint4_linear_437_4482)"/>
<path d="M49.7228 0.374792C48.5514 -0.19619 47.1197 -0.108347 45.8181 0.5944C44.6467 1.25323 43.6055 2.35127 42.9547 3.75676C42.8245 4.02029 42.7378 4.28382 42.6076 4.54735C42.2171 5.68932 42.0436 6.8752 42.2605 7.97325C42.5208 9.46658 43.3018 10.6525 44.4732 11.2235C44.6467 11.3113 44.8636 11.3552 45.0372 11.3552C45.5144 11.3552 45.9917 11.0917 46.252 10.6085C46.5557 9.94972 46.2954 9.11521 45.6446 8.80776C45.1239 8.54423 44.907 7.8854 44.8636 7.53403C44.7335 6.74344 44.907 5.77716 45.2975 4.94265C45.3843 4.81088 45.4276 4.67912 45.5144 4.54735C45.9049 3.8446 46.4689 3.31755 47.0329 2.96617C47.3366 2.79049 47.9874 2.52695 48.508 2.79048C49.0286 3.05401 49.2889 3.71284 49.3323 4.50343H51.5016C51.6751 4.50343 51.8487 4.50343 51.9788 4.54735C51.9788 2.70264 51.1545 1.12146 49.7228 0.374792Z" fill="url(#paint5_linear_437_4482)"/>
<path d="M25.5556 38.4981C22.9959 38.4981 20.3927 38.4981 17.833 38.4981C16.1844 38.4981 15.2299 37.6196 15.1431 35.9945C14.9262 31.9977 14.7526 28.0008 14.5357 24.0039C14.4923 23.0376 15.013 22.1153 15.8807 21.6321C16.7484 21.149 17.7462 21.1929 18.397 21.8078C19.178 22.5545 19.9155 23.3012 20.6964 24.0478C21.434 24.7506 22.3451 24.6188 23.126 23.6965C24.3842 22.1592 25.599 20.6659 26.8572 19.1286C27.7683 18.0306 29.1566 17.7231 30.0677 18.4698C30.328 18.6455 30.5015 18.9529 30.6317 19.2164C31.3692 20.6659 32.1068 22.1592 32.8443 23.6525C33.3216 24.6188 34.1893 24.7506 35.1872 24.0039C36.1416 23.3012 37.1395 22.5984 38.094 21.8517C38.9617 21.1929 40.0029 21.1051 40.7405 21.6321C41.478 22.1592 41.695 23.0816 41.3045 24.0918C39.786 28.0886 38.2241 32.1294 36.7056 36.1263C36.1416 37.6196 34.8835 38.542 33.3216 38.542C30.7619 38.4981 28.1587 38.4981 25.5556 38.4981ZM26.7704 28.7914C25.2953 28.7914 23.907 29.9773 23.6466 31.4706C23.3863 32.9639 24.4276 34.1937 25.8593 34.1937C27.3344 34.1937 28.7661 32.9639 28.9831 31.4706C29.2434 30.0212 28.2455 28.7914 26.7704 28.7914Z" fill="white"/>
<path d="M34.6648 46.7555H15.0112C14.0567 46.7555 13.2324 45.921 13.2324 44.8669C13.2324 43.8128 14.0134 42.9783 15.0112 42.9783H34.6648C35.6193 42.9783 36.4436 43.8128 36.4436 44.8669C36.4436 45.921 35.6193 46.7555 34.6648 46.7555Z" fill="white"/>
<defs>
<linearGradient id="paint0_linear_437_4482" x1="52.4158" y1="30.3092" x2="57.9327" y2="30.3092" gradientUnits="userSpaceOnUse">
<stop stop-color="#9181E9"/>
<stop offset="0.6444" stop-color="#6358EE"/>
</linearGradient>
<linearGradient id="paint1_linear_437_4482" x1="-0.0117141" y1="31.2683" x2="54.7815" y2="31.2683" gradientUnits="userSpaceOnUse">
<stop stop-color="#9181E9"/>
<stop offset="0.6444" stop-color="#6358EE"/>
</linearGradient>
<linearGradient id="paint2_linear_437_4482" x1="17.7189" y1="0.00259946" x2="14.3456" y2="11.4876" gradientUnits="userSpaceOnUse">
<stop stop-color="#54E3DF"/>
<stop offset="0.2739" stop-color="#3CD1E0"/>
<stop offset="1" stop-color="#00A3E1"/>
</linearGradient>
<linearGradient id="paint3_linear_437_4482" x1="28.0082" y1="0.00229208" x2="24.6348" y2="11.4875" gradientUnits="userSpaceOnUse">
<stop stop-color="#54E3DF"/>
<stop offset="0.2739" stop-color="#3CD1E0"/>
<stop offset="1" stop-color="#00A3E1"/>
</linearGradient>
<linearGradient id="paint4_linear_437_4482" x1="38.2989" y1="0.00251167" x2="34.9255" y2="11.4878" gradientUnits="userSpaceOnUse">
<stop stop-color="#54E3DF"/>
<stop offset="0.2739" stop-color="#3CD1E0"/>
<stop offset="1" stop-color="#00A3E1"/>
</linearGradient>
<linearGradient id="paint5_linear_437_4482" x1="48.5908" y1="0.00374131" x2="45.2175" y2="11.4888" gradientUnits="userSpaceOnUse">
<stop stop-color="#54E3DF"/>
<stop offset="0.2739" stop-color="#3CD1E0"/>
<stop offset="1" stop-color="#00A3E1"/>
</linearGradient>
</defs>
</svg>
