<svg width="52" height="52" viewBox="0 0 52 52" fill="none" xmlns="http://www.w3.org/2000/svg">
<g clip-path="url(#clip0_765_875)">
<path d="M2.08 51.9999C1.04 51.6532 0 50.9599 0 49.5732C0 48.8799 0 48.1866 0.346667 47.4932C2.08 40.2132 5.89333 35.0132 12.8267 32.2399C12.8267 32.2399 12.8267 32.2399 13.1733 32.2399C10.4 29.1199 9.70667 25.9999 10.7467 22.5332C11.44 20.1066 12.8267 18.0266 14.9067 16.6399C18.72 13.8666 24.2667 14.2132 28.08 17.6799C31.5467 21.1466 32.5867 27.3866 28.7733 32.2399C28.7733 32.2399 29.12 32.2399 29.12 32.5866C36.0533 36.0532 39.8667 41.2532 41.2533 48.8799C41.6 50.6132 40.9067 51.3066 39.1733 52.3466C38.8267 52.3466 38.48 52.3466 38.1333 52.3466C36.7467 51.9999 36.0533 51.3066 36.0533 49.9199C35.7067 47.4932 34.6667 45.0666 33.28 42.9866C29.4667 37.7866 24.2667 35.3599 17.68 36.3999C11.44 37.4399 7.62667 41.5999 5.54667 47.4932C5.2 48.1866 5.2 48.8799 4.85333 49.9199C4.50667 51.3066 3.81333 51.9999 2.77333 52.3466C2.77333 51.9999 2.42667 51.9999 2.08 51.9999ZM20.8 30.5066C23.5733 30.5066 26 28.0799 26 25.3066C26 22.5332 23.5733 20.1066 20.8 20.1066C18.0267 20.1066 15.6 22.5332 15.6 25.3066C15.6 28.0799 17.68 30.5066 20.8 30.5066Z" fill="currentColor"/>
<path d="M52.0002 6.93333C52.0002 7.62667 51.6535 7.97333 51.6535 8.66667C51.3068 10.0533 50.2668 11.44 49.2269 12.48C47.8402 13.8667 46.1069 15.2533 44.3735 16.64C44.0269 16.9867 43.6802 17.3333 42.9868 17.3333C41.6002 18.0267 40.2135 18.0267 38.8268 17.3333C38.8268 17.3333 38.4802 17.3333 38.4802 16.9867C36.4002 15.2533 34.3202 13.52 32.5868 11.44C31.5468 9.70667 30.8535 7.62667 30.8535 5.2C31.2002 2.42667 33.6269 0 36.4002 0C38.1335 0 39.5202 1.04 40.5602 2.42667C41.2535 3.12 41.2535 3.12 41.9469 2.42667C43.3335 1.04 44.7202 0 46.4535 0C49.2268 0 51.3069 1.73333 52.0002 4.85333V5.2C52.0002 5.54667 52.0002 6.24 52.0002 6.93333Z" fill="currentColor"/>
</g>
<defs>
<clipPath id="clip0_765_875">
<rect width="52" height="52" fill="white"/>
</clipPath>
</defs>
</svg>
