<svg width="42" height="42" viewBox="0 0 42 42" fill="none" xmlns="http://www.w3.org/2000/svg">
<rect width="42" height="42" rx="21" fill="#3DAF36"/>
<path d="M11 11.8035C11.0151 18.1212 11.0038 24.4428 11.0038 30.7644C13.2867 30.7761 15.5734 30.7722 17.8563 30.7644C17.8902 27.629 17.8148 24.4936 17.8977 21.362C18.6474 22.4475 19.333 23.5799 20.094 24.6536C21.3711 26.7114 22.8214 28.6559 24.0495 30.7449C26.3475 30.8074 28.6493 30.7449 30.951 30.78C30.9736 30.4833 31 30.1865 31 29.8898C30.9661 23.8571 31.0264 17.8244 30.9699 11.7917C28.6945 11.7722 26.4229 11.7956 24.1475 11.78C24.1287 14.9311 24.1663 18.086 24.1286 21.2332C22.0153 18.1212 20.0186 14.9155 17.8563 11.8386C15.5771 11.7293 13.2829 11.8074 11 11.8035Z" fill="white"/>
</svg>
