<svg width="32" height="32" viewBox="0 0 32 32" fill="none" xmlns="http://www.w3.org/2000/svg">
<path d="M29.2875 24.8002C29.2938 24.7752 29.2937 24.7502 29.3 24.7252C29.3062 24.6939 29.3125 24.6627 29.3125 24.6377C29.3188 24.6127 29.3188 24.5877 29.3188 24.5564C29.3188 24.5252 29.325 24.5002 29.325 24.4689C29.325 24.4439 29.325 24.4189 29.325 24.3939C29.325 24.3627 29.325 24.3377 29.325 24.3064C29.325 24.2814 29.325 24.2564 29.325 24.2314C29.325 24.2002 29.325 24.1689 29.3188 24.1439C29.3188 24.1189 29.3125 24.0939 29.3125 24.0752C29.3062 24.0439 29.3062 24.0127 29.3 23.9877C29.2937 23.9627 29.2938 23.9377 29.2875 23.9189C29.2812 23.8877 29.275 23.8627 29.2687 23.8314C29.2625 23.8064 29.2563 23.7814 29.25 23.7564C29.2437 23.7314 29.2375 23.7064 29.2313 23.6814C29.225 23.6564 29.2125 23.6314 29.2062 23.6002C29.2 23.5752 29.1938 23.5564 29.1812 23.5314C29.1687 23.5002 29.1625 23.4752 29.15 23.4439C29.1437 23.4252 29.1375 23.4064 29.125 23.3877C29.1125 23.3564 29.0938 23.3252 29.0812 23.2939C29.075 23.2814 29.0688 23.2627 29.0562 23.2502C29.0375 23.2189 29.0187 23.1814 29 23.1502C28.9937 23.1377 28.9875 23.1314 28.9813 23.1189C28.9625 23.0814 28.9375 23.0502 28.9125 23.0127C28.9062 23.0064 28.9 22.9939 28.8937 22.9877C28.8687 22.9564 28.8438 22.9189 28.8188 22.8877C28.8125 22.8752 28.8 22.8689 28.7938 22.8564C28.7688 22.8252 28.7437 22.8002 28.7188 22.7689C28.7 22.7502 28.6875 22.7314 28.6688 22.7189C28.65 22.7002 28.6312 22.6814 28.6125 22.6627C28.5687 22.6189 28.5188 22.5752 28.475 22.5377C28.4188 22.4939 28.3687 22.4439 28.3188 22.4002C27.4688 21.6439 26.7875 20.7439 26.2812 19.7564C26.2563 19.7127 26.2375 19.6627 26.2125 19.6189C26.2125 19.6127 26.2062 19.6064 26.2062 19.6002C25.675 18.4877 25.375 17.2627 25.3375 16.0002C25.3312 16.0002 25.3313 16.0002 25.325 16.0002C25.325 15.9064 25.3188 15.8127 25.3188 15.7189V12.0002C25.3188 6.84395 21.1375 2.66895 15.9875 2.66895C10.8313 2.66895 6.65625 6.8502 6.65625 12.0002V15.7189C6.65625 15.8127 6.65625 15.9064 6.65 16.0002C6.64375 16.0002 6.64375 16.0002 6.6375 16.0002C6.6 17.2564 6.3 18.4814 5.76875 19.6002C5.76875 19.6064 5.7625 19.6127 5.7625 19.6189C5.7375 19.6627 5.71875 19.7127 5.69375 19.7564C5.19375 20.7439 4.50625 21.6439 3.65625 22.4002C3.60625 22.4439 3.55 22.4939 3.5 22.5377C3.45 22.5814 3.40625 22.6189 3.3625 22.6627C3.34375 22.6814 3.325 22.7002 3.30625 22.7189C3.2875 22.7377 3.275 22.7564 3.25625 22.7689C3.23125 22.8002 3.20625 22.8252 3.18125 22.8564C3.175 22.8689 3.1625 22.8752 3.15625 22.8877C3.13125 22.9189 3.10625 22.9564 3.08125 22.9877C3.075 22.9939 3.06875 23.0064 3.0625 23.0127C3.0375 23.0439 3.01875 23.0814 2.99375 23.1189C2.9875 23.1314 2.98125 23.1377 2.975 23.1502C2.95625 23.1814 2.9375 23.2189 2.91875 23.2502C2.9125 23.2627 2.90625 23.2752 2.9 23.2939C2.8875 23.3252 2.86875 23.3564 2.85625 23.3877C2.85 23.4064 2.8375 23.4252 2.83125 23.4439C2.81875 23.4752 2.80625 23.5002 2.8 23.5314C2.79375 23.5564 2.78125 23.5752 2.775 23.6002C2.76875 23.6252 2.75625 23.6502 2.75 23.6814C2.74375 23.7064 2.7375 23.7314 2.73125 23.7564C2.725 23.7814 2.71875 23.8064 2.7125 23.8314C2.70625 23.8627 2.7 23.8877 2.69375 23.9189C2.6875 23.9439 2.6875 23.9689 2.68125 23.9877C2.675 24.0189 2.675 24.0439 2.66875 24.0752C2.66875 24.1002 2.6625 24.1252 2.6625 24.1439C2.6625 24.1752 2.65625 24.2064 2.65625 24.2314C2.65625 24.2564 2.65625 24.2814 2.65625 24.3064C2.65625 24.3377 2.65625 24.3627 2.65625 24.3939C2.65625 24.4189 2.65625 24.4439 2.65625 24.4689C2.65625 24.5002 2.6625 24.5252 2.6625 24.5564C2.6625 24.5814 2.66875 24.6064 2.66875 24.6377C2.675 24.6689 2.675 24.7002 2.68125 24.7252C2.6875 24.7502 2.6875 24.7752 2.69375 24.8002C2.69375 24.8064 2.69375 24.8127 2.69375 24.8189C2.7 24.8627 2.7125 24.9002 2.725 24.9377C2.725 24.9439 2.725 24.9502 2.73125 24.9564C3.0125 26.0002 4.04375 26.6689 5.13125 26.6689H5.1375H26.8312H26.8375C27.9187 26.6689 28.95 26.0002 29.2375 24.9564C29.2375 24.9502 29.2375 24.9439 29.2437 24.9377C29.2563 24.9002 29.2625 24.8564 29.275 24.8189C29.2875 24.8127 29.2875 24.8064 29.2875 24.8002Z" fill="#CED4DA"/>
<path d="M20.9001 28H11.1001C11.1063 28.025 11.1126 28.05 11.1188 28.0688C11.6063 30.2875 13.5688 31.9625 15.9251 31.9938C15.9501 31.9938 15.9751 31.9938 16.0001 31.9938C16.0251 31.9938 16.0501 31.9938 16.0751 31.9938C18.4313 31.9563 20.3938 30.2875 20.8813 28.0688C20.8876 28.05 20.8938 28.025 20.9001 28Z" fill="#CED4DA"/>
</svg>
