<svg width="42" height="42" viewBox="0 0 42 42" fill="none" xmlns="http://www.w3.org/2000/svg">
<rect width="42" height="42" rx="21" fill="#FEE500"/>
<path d="M20.9638 10.9199C14.8632 10.9199 9.94336 14.8558 9.94336 19.6339C9.94336 22.7354 11.99 25.4511 15.06 27.0019L14.0209 30.8827C14.0013 30.9408 13.9983 31.0032 14.0122 31.063C14.0261 31.1228 14.0564 31.1775 14.0996 31.2211C14.1627 31.2767 14.2438 31.3075 14.3279 31.3077C14.3976 31.3021 14.4638 31.2745 14.5168 31.229L18.988 28.2141C19.648 28.3052 20.3133 28.3525 20.9796 28.3558C27.0723 28.3558 32 24.4199 32 19.6339C32 14.8479 27.0565 10.9199 20.9638 10.9199Z" fill="#392020"/>
</svg>
